<?xml version="1.0" encoding="UTF-8"?>
<svg version="1.1" xmlns="http://www.w3.org/2000/svg" width="512" height="512">
<path d="M0 0 C0.97088562 0.00215515 1.94177124 0.0043103 2.94207764 0.00653076 C17.28085186 0.05758363 31.28046967 0.45300087 45.375 3.3125 C46.39045898 3.51117676 47.40591797 3.70985352 48.45214844 3.91455078 C94.23286261 13.07206553 135.60099085 33.7356188 170.05078125 65.2109375 C172.08065015 67.04634837 174.1520936 68.80631444 176.25 70.5625 C194.78541913 86.78565357 209.23360054 108.08612976 221.375 129.3125 C221.74625 129.95638672 222.1175 130.60027344 222.5 131.26367188 C234.94366924 153.06169664 242.89901598 177.02601019 248.125 201.5 C248.42325684 202.88723267 248.42325684 202.88723267 248.72753906 204.30249023 C251.95078045 220.17128712 252.75211899 235.78655419 252.6875 251.9375 C252.68534485 252.90838562 252.6831897 253.87927124 252.68096924 254.87957764 C252.62991637 269.21835186 252.23449913 283.21796967 249.375 297.3125 C249.07698486 298.83568848 249.07698486 298.83568848 248.77294922 300.38964844 C238.03773904 354.05765797 210.06387776 407.0784814 167.375 442.3125 C166.446875 443.12847656 165.51875 443.94445312 164.5625 444.78515625 C151.91429736 455.86571108 137.96632418 465.00112726 123.375 473.3125 C122.4156958 473.86502441 122.4156958 473.86502441 121.43701172 474.42871094 C99.63436377 486.87657084 75.6676355 494.83520368 51.1875 500.0625 C50.26267822 500.26133789 49.33785645 500.46017578 48.38500977 500.66503906 C32.51621288 503.88828045 16.90094581 504.68961899 0.75 504.625 C-0.22088562 504.62284485 -1.19177124 504.6206897 -2.19207764 504.61846924 C-16.53085186 504.56741637 -30.53046967 504.17199913 -44.625 501.3125 C-45.64045898 501.11382324 -46.65591797 500.91514648 -47.70214844 500.71044922 C-101.55967813 489.93732933 -155.61645602 461.57569014 -190.625 418.3125 C-191.60724952 417.14123607 -192.59042062 415.97074473 -193.57421875 414.80078125 C-221.80344729 380.97326326 -240.55819649 340.64229742 -248.625 297.3125 C-248.78726074 296.4968457 -248.94952148 295.68119141 -249.11669922 294.84082031 C-254.42709968 267.2530433 -254.20763196 234.82940828 -248.625 207.3125 C-248.42632324 206.29704102 -248.22764648 205.28158203 -248.02294922 204.23535156 C-234.85028053 138.38187529 -196.5254358 80.2545132 -140.95703125 42.4921875 C-134.95743672 38.56748205 -128.8476506 34.87183142 -122.625 31.3125 C-121.98111328 30.94125 -121.33722656 30.57 -120.67382812 30.1875 C-98.87580336 17.74383076 -74.91148981 9.78848402 -50.4375 4.5625 C-49.51267822 4.36366211 -48.58785645 4.16482422 -47.63500977 3.95996094 C-31.76621288 0.73671955 -16.15094581 -0.06461899 0 0 Z " fill="#0CB0FE" transform="translate(255.625,3.6875)"/>
<path d="M0 0 C0.94069336 0.22598877 0.94069336 0.22598877 1.90039062 0.45654297 C24.25100188 5.99103068 42.63979115 16.87021663 59 33 C59.79148437 33.77859375 60.58296875 34.5571875 61.3984375 35.359375 C84.26889416 59.27304547 91.88731307 90.14858216 91.22793579 122.30592346 C90.64737325 142.31531163 83.56807561 160.65873108 72.79418945 177.37036133 C70.50046759 180.88408341 70.50046759 180.88408341 70 185 C71.66038959 187.03334154 73.32439137 188.88882764 75.15234375 190.76171875 C75.68589981 191.31237503 76.21945587 191.86303131 76.7691803 192.43037415 C77.90407056 193.59362248 79.04340233 194.75255145 80.18676758 195.9074707 C81.92132231 197.67105159 83.62121805 199.46392742 85.32226562 201.25976562 C90.64953391 207.17152893 90.64953391 207.17152893 97.54345703 210.55712891 C99.78137438 210.43621697 99.78137438 210.43621697 101.82460022 210.04051208 C107.63590286 209.93228922 113.04608325 216.912378 116.94384766 220.65332031 C118.77289751 222.45587856 120.59602239 224.26446303 122.4140625 226.078125 C123.39702738 227.05464388 124.38013361 228.0310205 125.3633728 229.00726318 C127.41246061 231.0444509 129.45745038 233.08565256 131.5 235.12939453 C134.09638538 237.7259831 136.70626621 240.30852902 139.31989479 242.8877449 C141.35162731 244.89706449 143.37402682 246.91558813 145.39405441 248.9366684 C146.81142022 250.35058053 148.23781883 251.75541964 149.66445923 253.15997314 C155.77189197 259.3103719 161.99793007 265.819808 163.69140625 274.57421875 C163.31944143 283.55773283 162.00755893 289.65851182 155.77734375 296.421875 C149.80354282 301.72608505 143.25833386 302.46907193 135.50390625 302.7265625 C125.14057159 300.57764361 117.78461225 292.35464104 110.62890625 285.08984375 C109.57494682 284.03349346 108.52023965 282.97788875 107.46482849 281.92298889 C105.27114156 279.7261972 103.08426496 277.52292712 100.90258789 275.31420898 C98.11324831 272.49072466 95.31075519 269.68075392 92.50354099 266.87505245 C90.3316095 264.70257628 88.16493465 262.5249213 85.99998283 260.34549141 C84.9681757 259.30734805 83.93517767 258.27038684 82.90094185 257.23466301 C81.45824318 255.78760693 80.02232752 254.33414283 78.58813477 252.87866211 C77.7722438 252.05514755 76.95635284 251.231633 76.11573792 250.38316345 C71.07106766 244.70085579 71.07106766 244.70085579 70.90698242 240.77381897 C71.03617065 239.69673927 71.03617065 239.69673927 71.16796875 238.59790039 C71.28179976 235.04678601 70.94534146 233.30144563 68.61328125 230.59155273 C67.53585811 229.51553661 66.43404791 228.46353627 65.3125 227.43359375 C64.73540283 226.86923111 64.15830566 226.30486847 63.5637207 225.72340393 C61.72929465 223.93905756 59.86605953 222.18867693 58 220.4375 C56.74535053 219.22802957 55.49272171 218.0164593 54.2421875 216.80273438 C51.18430496 213.84367907 48.10019026 210.91467356 45 208 C43.83549316 208.68618408 43.83549316 208.68618408 42.64746094 209.38623047 C20.69757832 222.2654376 0.58984965 230.43019143 -25.3125 230.3125 C-26.5927002 230.30758545 -27.87290039 230.3026709 -29.19189453 230.29760742 C-38.17956788 230.18604814 -46.34539049 229.5693372 -55 227 C-56.794375 226.50693359 -56.794375 226.50693359 -58.625 226.00390625 C-88.20418352 217.09933954 -113.27775648 196.0011945 -128 169 C-132.70782809 159.75621001 -136.4543361 150.06200802 -139 140 C-139.17732666 139.30374512 -139.35465332 138.60749023 -139.53735352 137.89013672 C-141.22021117 130.55805998 -141.34573588 123.37457962 -141.3125 115.875 C-141.30831055 114.58980469 -141.30412109 113.30460937 -141.29980469 111.98046875 C-141.18850982 102.61275608 -140.444929 94.04941253 -138 85 C-137.73316406 83.92878906 -137.46632813 82.85757813 -137.19140625 81.75390625 C-129.28443957 53.04283168 -109.56193305 28.09870193 -83.93457031 13.09521484 C-58.9550039 -1.04642258 -28.26252388 -6.85043409 0 0 Z " fill="#FDFEFE" transform="translate(245,106)"/>
<path d="M0 0 C13.05832703 10.16799186 22.2695896 23.66855338 27.66113281 39.29345703 C27.97953125 40.15326172 28.29792969 41.01306641 28.62597656 41.89892578 C32.84250251 55.36460543 32.5153932 73.07295242 27.66113281 86.29345703 C27.25894531 87.47810547 26.85675781 88.66275391 26.44238281 89.88330078 C19.29562699 109.95067261 4.82132978 125.82398385 -14.23242188 135.22802734 C-31.84343517 143.39010658 -53.02473262 145.50394411 -71.71386719 139.68408203 C-82.71602187 135.46342786 -92.61040582 130.32423527 -101.33886719 122.29345703 C-102.17933594 121.54451172 -103.01980469 120.79556641 -103.88574219 120.02392578 C-117.09123452 107.63877464 -126.88723575 88.40963045 -127.67480469 70.04345703 C-128.02354457 48.16571543 -123.51924308 27.89794004 -108.33886719 11.29345703 C-107.53835937 10.40142578 -106.73785156 9.50939453 -105.91308594 8.59033203 C-77.91659072 -21.06731558 -32.43888607 -23.82787039 0 0 Z " fill="#0CB0FE" transform="translate(268.3388671875,156.70654296875)"/>
<path d="M0 0 C30.01566029 -1.26628567 57.89157513 10.32926906 80.0625 30.25 C100.62929888 49.31521135 115.64180034 76.59960843 117.16113281 105.01342773 C117.53292248 133.08138605 117.53292248 133.08138605 114 145 C113.80132324 145.69706055 113.60264648 146.39412109 113.39794922 147.11230469 C109.2872621 161.33189504 102.90845226 173.5138211 95 186 C98.50863895 189.73196109 102.04649223 193.43268286 105.61401367 197.10839844 C106.82193675 198.36144275 108.02164295 199.62246453 109.21264648 200.89160156 C110.93167961 202.72045184 112.6787527 204.51806194 114.43359375 206.3125 C114.95586044 206.88121826 115.47812714 207.44993652 116.01622009 208.03588867 C119.03897794 211.12089172 119.03897794 211.12089172 123.09622192 212.10302734 C124.21080276 212.01142334 124.21080276 212.01142334 125.34790039 211.91796875 C130.49074898 211.5973438 132.8853252 213.55253274 136.68887329 216.83770752 C137.83288101 217.9080423 137.83288101 217.9080423 139 219 C139.79111176 219.73692078 140.58222351 220.47384155 141.39730835 221.23309326 C143.9922907 223.71234725 146.53777845 226.23435612 149.07421875 228.7734375 C150.00168411 229.69661774 150.92914948 230.61979797 151.88471985 231.57095337 C153.833526 233.51235915 155.77849399 235.45751222 157.72094727 237.40527344 C160.19008209 239.88021056 162.67042497 242.34356592 165.15400982 244.80399132 C167.55107891 247.18265512 169.9369783 249.57240995 172.32421875 251.9609375 C173.20559006 252.83309906 174.08696136 253.70526062 174.99504089 254.60385132 C182.61317097 262.27905658 189.06009066 269.12367458 189.25 280.3125 C189.1392203 288.65421121 185.85934617 294.28861712 180 300 C174.77525909 303.73195779 170.59289205 304.12592892 164.25 304.0625 C163.07953125 304.05347656 161.9090625 304.04445313 160.703125 304.03515625 C159.81109375 304.02355469 158.9190625 304.01195312 158 304 C158 303.34 158 302.68 158 302 C159.609375 300.703125 159.609375 300.703125 161.75 299.25 C166.59182737 295.73646156 169.83488431 291.97386591 171 286 C171.21786453 283.96475918 171.35618273 281.92025246 171.4375 279.875 C171.49808594 278.82054687 171.55867187 277.76609375 171.62109375 276.6796875 C169.87208161 266.31761556 161.4870834 258.91594837 154.30859375 251.84765625 C153.27466362 250.81611718 152.24147927 249.78383012 151.20899963 248.75083923 C149.05928518 246.60422886 146.90309832 244.46443028 144.74145508 242.32983398 C141.9785021 239.6010294 139.22907041 236.85907153 136.48390102 234.11238956 C134.35774759 231.98678086 132.22641583 229.86643001 130.0933094 227.74780083 C129.07749541 226.73832184 128.0628624 225.72765295 127.04946709 224.71574593 C125.63360295 223.30424014 124.21037582 221.90013185 122.78686523 220.49633789 C121.98111557 219.69821182 121.17536591 218.90008575 120.34519958 218.07777405 C116.11985866 214.27017268 116.11985866 214.27017268 110.7815094 212.91467285 C109.70739052 213.0468219 109.70739052 213.0468219 108.61157227 213.18164062 C104.99306009 213.29724595 103.25186778 212.9020705 100.49975586 210.52148438 C99.38143252 209.40175292 98.28716459 208.25761151 97.21484375 207.09375 C96.62828506 206.49445679 96.04172638 205.89516357 95.43739319 205.27770996 C93.58177088 203.3719885 91.76000634 201.43736108 89.9375 199.5 C88.67984973 198.19717342 87.42010274 196.8963674 86.15820312 195.59765625 C83.0807098 192.42130912 80.0331872 189.2186596 77 186 C77.45745605 185.22366211 77.91491211 184.44732422 78.38623047 183.64746094 C95.61296642 154.28813562 105.23908445 123.00385969 96.9375 88.625 C88.9733408 58.50209717 69.72891045 31.95669489 42.84716797 16.05957031 C29.56183063 8.43885077 15.00537735 3.89391783 0 1 C0 0.67 0 0.34 0 0 Z " fill="#0186D8" transform="translate(236,104)"/>
<path d="M0 0 C0 0.33 0 0.66 0 1 C-0.8971875 1.1959375 -1.794375 1.391875 -2.71875 1.59375 C-16.98052036 5.01186025 -31.33102268 10.82480503 -41.60546875 21.69921875 C-43 23 -43 23 -45 23 C-45.26554687 23.58265625 -45.53109375 24.1653125 -45.8046875 24.765625 C-47.03536654 27.06611001 -48.42660213 28.77511875 -50.125 30.75 C-64.19868239 48.70202493 -67.51210491 68.93330221 -65.75 91.15234375 C-62.93723132 110.6366268 -52.064013 128.58067179 -37 141 C-26.12932806 149.03425442 -13.32800568 154.66175339 0 157 C0 157.33 0 157.66 0 158 C-20.65218061 158.91001041 -39.79386981 153.86037257 -55.703125 140.11328125 C-56.46109375 139.41589844 -57.2190625 138.71851563 -58 138 C-58.84046875 137.25105469 -59.6809375 136.50210938 -60.546875 135.73046875 C-73.75236733 123.34531761 -83.54836857 104.11617342 -84.3359375 85.75 C-84.68467738 63.8722584 -80.18037589 43.60448301 -65 27 C-64.19949219 26.10796875 -63.39898437 25.2159375 -62.57421875 24.296875 C-45.69087756 6.41177261 -24.12223405 -0.8360723 0 0 Z " fill="#0386D8" transform="translate(225,141)"/>
<path d="M0 0 C2.31 1.98 4.62 3.96 7 6 C3.80240224 9.67161351 0.28441096 11.5625179 -4.125 13.4375 C-4.82294678 13.7368042 -5.52089355 14.0361084 -6.23999023 14.34448242 C-21.66837892 20.74545858 -38.23877342 24.58811321 -55 24 C-55 23.34 -55 22.68 -55 22 C-53.16501953 21.70609375 -53.16501953 21.70609375 -51.29296875 21.40625 C-34.42204583 18.49618891 -12.59363547 12.59363547 0 0 Z " fill="#0588D9" transform="translate(289,313)"/>
<path d="M0 0 C-0.33 0.66 -0.66 1.32 -1 2 C-3.97 2 -6.94 2 -10 2 C-10 1.34 -10 0.68 -10 0 C-6.33694766 -0.74926071 -3.57644848 -1.2380014 0 0 Z " fill="#169BE6" transform="translate(244,335)"/>
</svg>
